<?xml version="1.0" encoding="utf-8"?>
<!-- Svg Vector Icons : http://www.onlinewebfonts.com/icon -->
<!DOCTYPE svg PUBLIC "-//W3C//DTD SVG 1.1//EN" "http://www.w3.org/Graphics/SVG/1.1/DTD/svg11.dtd">
<svg version="1.1" xmlns="http://www.w3.org/2000/svg" xmlns:xlink="http://www.w3.org/1999/xlink" x="0px" y="0px" viewBox="0 0 256 256" enable-background="new 0 0 256 256" xml:space="preserve">
<metadata> Svg Vector Icons : http://www.onlinewebfonts.com/icon </metadata>
<g><g><path fill="#000000" d="M181.6,10H74.4C38.8,10,10,38.8,10,74.4v107.3c0,35.5,28.8,64.3,64.4,64.3h107.3c35.5,0,64.3-28.8,64.3-64.4V74.4C246,38.8,217.2,10,181.6,10z M222.4,170.9c0,28.4-23.1,51.5-51.5,51.5H85.1c-28.4,0-51.5-23.1-51.5-51.5V85.1c0-28.4,23-51.5,51.5-51.5h85.8c28.4,0,51.5,23,51.5,51.5V170.9L222.4,170.9z"/><path fill="#000000" d="M130.1,167.5c-2.2,2.3-5,3.4-7.8,3.4c-2.8,0-5.7-1.2-7.8-3.4l-36.9-39c-2.3-2.4-3.3-5.6-3.2-8.7c0.1-2.8,1.1-5.7,3.2-7.8c2-2.2,4.7-3.2,7.4-3.3c3-0.1,6,0.9,8.3,3.3l29.1,30.7l51.2-54.1c2.3-2.4,5.3-3.5,8.3-3.3c2.7,0.1,5.3,1.2,7.4,3.3c2,2.2,3.1,5,3.2,7.8c0.1,3.2-0.9,6.3-3.2,8.7L130.1,167.5z"/></g></g>
</svg>